{
  "asset": {
    "generator": "Khronos glTF Blender I/O v4.2.60",
    "version": "2.0"
  },
  "scene": 0,
  "scenes": [
    {
      "name": "Scene",
      "nodes": [
        0,
        1,
        2,
        3,
        4,
        5,
        6,
        7,
        8
      ]
    }
  ],
  "nodes": [
    {
      "mesh": 0,
      "name": "cheiridopsis_succulent_a_LOD0",
      "translation": [
        -0.8500000238418579,
        0,
        0.20000001788139343
      ]
    },
    {
      "mesh": 1,
      "name": "cheiridopsis_succulent_b_LOD0",
      "translation": [
        -0.550000011920929,
        0,
        0.20000001788139343
      ]
    },
    {
      "mesh": 2,
      "name": "cheiridopsis_succulent_c_LOD0",
      "translation": [
        -0.25,
        0,
        0.20000001788139343
      ]
    },
    {
      "mesh": 3,
      "name": "cheiridopsis_succulent_d_LOD0",
      "translation": [
        0.14999999105930328,
        0,
        0.20000001788139343
      ]
    },
    {
      "mesh": 4,
      "name": "cheiridopsis_succulent_e_LOD0",
      "translation": [
        0.6500000357627869,
        0,
        0.20000001788139343
      ]
    },
    {
      "mesh": 5,
      "name": "cheiridopsis_succulent_f_LOD0",
      "translation": [
        -0.9000000357627869,
        0,
        -0.30000001192092896
      ]
    },
    {
      "mesh": 6,
      "name": "cheiridopsis_succulent_g_LOD0",
      "translation": [
        -0.4000000059604645,
        0,
        -0.30000001192092896
      ]
    },
    {
      "mesh": 7,
      "name": "cheiridopsis_succulent_h_LOD0",
      "translation": [
        0.20000000298023224,
        0,
        -0.30000001192092896
      ]
    },
    {
      "mesh": 8,
      "name": "cheiridopsis_succulent_i_LOD0",
      "translation": [
        0.800000011920929,
        0,
        -0.30000001192092896
      ]
    }
  ],
  "materials": [
    {
      "doubleSided": true,
      "name": "cheiridopsis_succulent",
      "normalTexture": {
        "index": 0
      },
      "pbrMetallicRoughness": {
        "baseColorTexture": {
          "index": 1
        },
        "metallicFactor": 0,
        "metallicRoughnessTexture": {
          "index": 2
        }
      }
    },
    {
      "alphaMode": "BLEND",
      "doubleSided": true,
      "name": "cheiridopsis_succulent_flower",
      "normalTexture": {
        "index": 3
      },
      "pbrMetallicRoughness": {
        "baseColorTexture": {
          "index": 4
        },
        "metallicFactor": 0,
        "metallicRoughnessTexture": {
          "index": 5
        }
      }
    }
  ],
  "meshes": [
    {
      "name": "Icosphere.006",
      "primitives": [
        {
          "attributes": {
            "POSITION": 0,
            "NORMAL": 1,
            "TEXCOORD_0": 2
          },
          "indices": 3,
          "material": 0
        }
      ]
    },
    {
      "name": "Icosphere.003",
      "primitives": [
        {
          "attributes": {
            "POSITION": 4,
            "NORMAL": 5,
            "TEXCOORD_0": 6
          },
          "indices": 7,
          "material": 0
        }
      ]
    },
    {
      "name": "Icosphere.004",
      "primitives": [
        {
          "attributes": {
            "POSITION": 8,
            "NORMAL": 9,
            "TEXCOORD_0": 10
          },
          "indices": 11,
          "material": 0
        }
      ]
    },
    {
      "name": "Icosphere.005",
      "primitives": [
        {
          "attributes": {
            "POSITION": 12,
            "NORMAL": 13,
            "TEXCOORD_0": 14
          },
          "indices": 15,
          "material": 0
        },
        {
          "attributes": {
            "POSITION": 16,
            "NORMAL": 17,
            "TEXCOORD_0": 18
          },
          "indices": 19,
          "material": 1
        }
      ]
    },
    {
      "name": "Icosphere.013",
      "primitives": [
        {
          "attributes": {
            "POSITION": 20,
            "NORMAL": 21,
            "TEXCOORD_0": 22
          },
          "indices": 23,
          "material": 0
        },
        {
          "attributes": {
            "POSITION": 24,
            "NORMAL": 25,
            "TEXCOORD_0": 26
          },
          "indices": 27,
          "material": 1
        }
      ]
    },
    {
      "name": "Icosphere.007",
      "primitives": [
        {
          "attributes": {
            "POSITION": 28,
            "NORMAL": 29,
            "TEXCOORD_0": 30
          },
          "indices": 31,
          "material": 0
        }
      ]
    },
    {
      "name": "Icosphere.001",
      "primitives": [
        {
          "attributes": {
            "POSITION": 32,
            "NORMAL": 33,
            "TEXCOORD_0": 34
          },
          "indices": 35,
          "material": 0
        },
        {
          "attributes": {
            "POSITION": 36,
            "NORMAL": 37,
            "TEXCOORD_0": 38
          },
          "indices": 39,
          "material": 1
        }
      ]
    },
    {
      "name": "Icosphere.012",
      "primitives": [
        {
          "attributes": {
            "POSITION": 40,
            "NORMAL": 41,
            "TEXCOORD_0": 42
          },
          "indices": 43,
          "material": 0
        },
        {
          "attributes": {
            "POSITION": 44,
            "NORMAL": 45,
            "TEXCOORD_0": 46
          },
          "indices": 19,
          "material": 1
        }
      ]
    },
    {
      "name": "Icosphere.014",
      "primitives": [
        {
          "attributes": {
            "POSITION": 47,
            "NORMAL": 48,
            "TEXCOORD_0": 49
          },
          "indices": 50,
          "material": 0
        },
        {
          "attributes": {
            "POSITION": 51,
            "NORMAL": 52,
            "TEXCOORD_0": 53
          },
          "indices": 39,
          "material": 1
        }
      ]
    }
  ],
  "textures": [
    {
      "sampler": 0,
      "source": 0
    },
    {
      "sampler": 0,
      "source": 1
    },
    {
      "sampler": 0,
      "source": 2
    },
    {
      "sampler": 0,
      "source": 0
    },
    {
      "sampler": 0,
      "source": 3
    },
    {
      "sampler": 0,
      "source": 2
    }
  ],
  "images": [
    {
      "mimeType": "image/jpeg",
      "name": "cheiridopsis_succulent_nor_gl",
      "uri": "textures/cheiridopsis_succulent_nor_gl_2k.jpg"
    },
    {
      "mimeType": "image/jpeg",
      "name": "cheiridopsis_succulent_diff",
      "uri": "textures/cheiridopsis_succulent_diff_2k.jpg"
    },
    {
      "mimeType": "image/jpeg",
      "name": "cheiridopsis_succulent_rough",
      "uri": "textures/cheiridopsis_succulent_arm_2k.jpg"
    },
    {
      "mimeType": "image/jpeg",
      "name": "cheiridopsis_succulent_diff-cheiridopsis_succulent_alpha",
      "uri": "textures/cheiridopsis_succulent_diff_2k.jpg"
    }
  ],
  "accessors": [
    {
      "bufferView": 0,
      "componentType": 5126,
      "count": 1134,
      "max": [
        0.10366500914096832,
        0.17558346688747406,
        0.09279119968414307
      ],
      "min": [
        -0.09755732864141464,
        -0.00985986739397049,
        -0.08445107936859131
      ],
      "type": "VEC3"
    },
    {
      "bufferView": 1,
      "componentType": 5126,
      "count": 1134,
      "type": "VEC3"
    },
    {
      "bufferView": 2,
      "componentType": 5126,
      "count": 1134,
      "type": "VEC2"
    },
    {
      "bufferView": 3,
      "componentType": 5123,
      "count": 4701,
      "type": "SCALAR"
    },
    {
      "bufferView": 4,
      "componentType": 5126,
      "count": 1933,
      "max": [
        0.12729349732398987,
        0.15399369597434998,
        0.11022064089775085
      ],
      "min": [
        -0.1154622808098793,
        -0.012968212366104126,
        -0.1300203800201416
      ],
      "type": "VEC3"
    },
    {
      "bufferView": 5,
      "componentType": 5126,
      "count": 1933,
      "type": "VEC3"
    },
    {
      "bufferView": 6,
      "componentType": 5126,
      "count": 1933,
      "type": "VEC2"
    },
    {
      "bufferView": 7,
      "componentType": 5123,
      "count": 7698,
      "type": "SCALAR"
    },
    {
      "bufferView": 8,
      "componentType": 5126,
      "count": 3007,
      "max": [
        0.11754729598760605,
        0.15395843982696533,
        0.11208239942789078
      ],
      "min": [
        -0.12064065784215927,
        -0.04314419627189636,
        -0.1501467376947403
      ],
      "type": "VEC3"
    },
    {
      "bufferView": 9,
      "componentType": 5126,
      "count": 3007,
      "type": "VEC3"
    },
    {
      "bufferView": 10,
      "componentType": 5126,
      "count": 3007,
      "type": "VEC2"
    },
    {
      "bufferView": 11,
      "componentType": 5123,
      "count": 11808,
      "type": "SCALAR"
    },
    {
      "bufferView": 12,
      "componentType": 5126,
      "count": 6265,
      "max": [
        0.18040978908538818,
        0.17431673407554626,
        0.16856350004673004
      ],
      "min": [
        -0.17260494828224182,
        -0.03832253813743591,
        -0.1812191605567932
      ],
      "type": "VEC3"
    },
    {
      "bufferView": 13,
      "componentType": 5126,
      "count": 6265,
      "type": "VEC3"
    },
    {
      "bufferView": 14,
      "componentType": 5126,
      "count": 6265,
      "type": "VEC2"
    },
    {
      "bufferView": 15,
      "componentType": 5123,
      "count": 24546,
      "type": "SCALAR"
    },
    {
      "bufferView": 16,
      "componentType": 5126,
      "count": 162,
      "max": [
        0.13395600020885468,
        0.2163260281085968,
        0.16855372488498688
      ],
      "min": [
        -0.11624951660633087,
        0.07518044859170914,
        -0.06856726855039597
      ],
      "type": "VEC3"
    },
    {
      "bufferView": 17,
      "componentType": 5126,
      "count": 162,
      "type": "VEC3"
    },
    {
      "bufferView": 18,
      "componentType": 5126,
      "count": 162,
      "type": "VEC2"
    },
    {
      "bufferView": 19,
      "componentType": 5123,
      "count": 864,
      "type": "SCALAR"
    },
    {
      "bufferView": 20,
      "componentType": 5126,
      "count": 8022,
      "max": [
        0.20496651530265808,
        0.18450871109962463,
        0.1533547192811966
      ],
      "min": [
        -0.18606418371200562,
        -0.034182850271463394,
        -0.19250790774822235
      ],
      "type": "VEC3"
    },
    {
      "bufferView": 21,
      "componentType": 5126,
      "count": 8022,
      "type": "VEC3"
    },
    {
      "bufferView": 22,
      "componentType": 5126,
      "count": 8022,
      "type": "VEC2"
    },
    {
      "bufferView": 23,
      "componentType": 5123,
      "count": 30942,
      "type": "SCALAR"
    },
    {
      "bufferView": 24,
      "componentType": 5126,
      "count": 81,
      "max": [
        0.11373579502105713,
        0.19354678690433502,
        0.046147093176841736
      ],
      "min": [
        0.04746630787849426,
        0.12494056671857834,
        -0.04196830093860626
      ],
      "type": "VEC3"
    },
    {
      "bufferView": 25,
      "componentType": 5126,
      "count": 81,
      "type": "VEC3"
    },
    {
      "bufferView": 26,
      "componentType": 5126,
      "count": 81,
      "type": "VEC2"
    },
    {
      "bufferView": 27,
      "componentType": 5123,
      "count": 432,
      "type": "SCALAR"
    },
    {
      "bufferView": 28,
      "componentType": 5126,
      "count": 7729,
      "max": [
        0.24411757290363312,
        0.19575518369674683,
        0.19127435982227325
      ],
      "min": [
        -0.2067430466413498,
        -0.03571461886167526,
        -0.21041139960289001
      ],
      "type": "VEC3"
    },
    {
      "bufferView": 29,
      "componentType": 5126,
      "count": 7729,
      "type": "VEC3"
    },
    {
      "bufferView": 30,
      "componentType": 5126,
      "count": 7729,
      "type": "VEC2"
    },
    {
      "bufferView": 31,
      "componentType": 5123,
      "count": 30384,
      "type": "SCALAR"
    },
    {
      "bufferView": 32,
      "componentType": 5126,
      "count": 9436,
      "max": [
        0.27198517322540283,
        0.19926437735557556,
        0.19085350632667542
      ],
      "min": [
        -0.2392774373292923,
        -0.04173941910266876,
        -0.23147626221179962
      ],
      "type": "VEC3"
    },
    {
      "bufferView": 33,
      "componentType": 5126,
      "count": 9436,
      "type": "VEC3"
    },
    {
      "bufferView": 34,
      "componentType": 5126,
      "count": 9436,
      "type": "VEC2"
    },
    {
      "bufferView": 35,
      "componentType": 5123,
      "count": 36564,
      "type": "SCALAR"
    },
    {
      "bufferView": 36,
      "componentType": 5126,
      "count": 243,
      "max": [
        0.17746838927268982,
        0.22761675715446472,
        0.1311791092157364
      ],
      "min": [
        -0.14928600192070007,
        0.1008128970861435,
        -0.18515896797180176
      ],
      "type": "VEC3"
    },
    {
      "bufferView": 37,
      "componentType": 5126,
      "count": 243,
      "type": "VEC3"
    },
    {
      "bufferView": 38,
      "componentType": 5126,
      "count": 243,
      "type": "VEC2"
    },
    {
      "bufferView": 39,
      "componentType": 5123,
      "count": 1296,
      "type": "SCALAR"
    },
    {
      "bufferView": 40,
      "componentType": 5126,
      "count": 12213,
      "max": [
        0.28953275084495544,
        0.19658994674682617,
        0.24351122975349426
      ],
      "min": [
        -0.3128620386123657,
        -0.041905589401721954,
        -0.29008498787879944
      ],
      "type": "VEC3"
    },
    {
      "bufferView": 41,
      "componentType": 5126,
      "count": 12213,
      "type": "VEC3"
    },
    {
      "bufferView": 42,
      "componentType": 5126,
      "count": 12213,
      "type": "VEC2"
    },
    {
      "bufferView": 43,
      "componentType": 5123,
      "count": 47784,
      "type": "SCALAR"
    },
    {
      "bufferView": 44,
      "componentType": 5126,
      "count": 162,
      "max": [
        0.09192489087581635,
        0.1620495766401291,
        0.1654171198606491
      ],
      "min": [
        -0.12457975745201111,
        0.08014482259750366,
        -0.2086361050605774
      ],
      "type": "VEC3"
    },
    {
      "bufferView": 45,
      "componentType": 5126,
      "count": 162,
      "type": "VEC3"
    },
    {
      "bufferView": 46,
      "componentType": 5126,
      "count": 162,
      "type": "VEC2"
    },
    {
      "bufferView": 47,
      "componentType": 5126,
      "count": 12308,
      "max": [
        0.25471386313438416,
        0.1788484752178192,
        0.268139123916626
      ],
      "min": [
        -0.255872905254364,
        -0.04075446352362633,
        -0.2805314064025879
      ],
      "type": "VEC3"
    },
    {
      "bufferView": 48,
      "componentType": 5126,
      "count": 12308,
      "type": "VEC3"
    },
    {
      "bufferView": 49,
      "componentType": 5126,
      "count": 12308,
      "type": "VEC2"
    },
    {
      "bufferView": 50,
      "componentType": 5123,
      "count": 48135,
      "type": "SCALAR"
    },
    {
      "bufferView": 51,
      "componentType": 5126,
      "count": 243,
      "max": [
        0.10312157869338989,
        0.2255142331123352,
        0.17599356174468994
      ],
      "min": [
        -0.1266535073518753,
        0.03815104439854622,
        -0.2505719065666199
      ],
      "type": "VEC3"
    },
    {
      "bufferView": 52,
      "componentType": 5126,
      "count": 243,
      "type": "VEC3"
    },
    {
      "bufferView": 53,
      "componentType": 5126,
      "count": 243,
      "type": "VEC2"
    }
  ],
  "bufferViews": [
    {
      "buffer": 0,
      "byteLength": 13608,
      "byteOffset": 0,
      "target": 34962
    },
    {
      "buffer": 0,
      "byteLength": 13608,
      "byteOffset": 13608,
      "target": 34962
    },
    {
      "buffer": 0,
      "byteLength": 9072,
      "byteOffset": 27216,
      "target": 34962
    },
    {
      "buffer": 0,
      "byteLength": 9402,
      "byteOffset": 36288,
      "target": 34963
    },
    {
      "buffer": 0,
      "byteLength": 23196,
      "byteOffset": 45692,
      "target": 34962
    },
    {
      "buffer": 0,
      "byteLength": 23196,
      "byteOffset": 68888,
      "target": 34962
    },
    {
      "buffer": 0,
      "byteLength": 15464,
      "byteOffset": 92084,
      "target": 34962
    },
    {
      "buffer": 0,
      "byteLength": 15396,
      "byteOffset": 107548,
      "target": 34963
    },
    {
      "buffer": 0,
      "byteLength": 36084,
      "byteOffset": 122944,
      "target": 34962
    },
    {
      "buffer": 0,
      "byteLength": 36084,
      "byteOffset": 159028,
      "target": 34962
    },
    {
      "buffer": 0,
      "byteLength": 24056,
      "byteOffset": 195112,
      "target": 34962
    },
    {
      "buffer": 0,
      "byteLength": 23616,
      "byteOffset": 219168,
      "target": 34963
    },
    {
      "buffer": 0,
      "byteLength": 75180,
      "byteOffset": 242784,
      "target": 34962
    },
    {
      "buffer": 0,
      "byteLength": 75180,
      "byteOffset": 317964,
      "target": 34962
    },
    {
      "buffer": 0,
      "byteLength": 50120,
      "byteOffset": 393144,
      "target": 34962
    },
    {
      "buffer": 0,
      "byteLength": 49092,
      "byteOffset": 443264,
      "target": 34963
    },
    {
      "buffer": 0,
      "byteLength": 1944,
      "byteOffset": 492356,
      "target": 34962
    },
    {
      "buffer": 0,
      "byteLength": 1944,
      "byteOffset": 494300,
      "target": 34962
    },
    {
      "buffer": 0,
      "byteLength": 1296,
      "byteOffset": 496244,
      "target": 34962
    },
    {
      "buffer": 0,
      "byteLength": 1728,
      "byteOffset": 497540,
      "target": 34963
    },
    {
      "buffer": 0,
      "byteLength": 96264,
      "byteOffset": 499268,
      "target": 34962
    },
    {
      "buffer": 0,
      "byteLength": 96264,
      "byteOffset": 595532,
      "target": 34962
    },
    {
      "buffer": 0,
      "byteLength": 64176,
      "byteOffset": 691796,
      "target": 34962
    },
    {
      "buffer": 0,
      "byteLength": 61884,
      "byteOffset": 755972,
      "target": 34963
    },
    {
      "buffer": 0,
      "byteLength": 972,
      "byteOffset": 817856,
      "target": 34962
    },
    {
      "buffer": 0,
      "byteLength": 972,
      "byteOffset": 818828,
      "target": 34962
    },
    {
      "buffer": 0,
      "byteLength": 648,
      "byteOffset": 819800,
      "target": 34962
    },
    {
      "buffer": 0,
      "byteLength": 864,
      "byteOffset": 820448,
      "target": 34963
    },
    {
      "buffer": 0,
      "byteLength": 92748,
      "byteOffset": 821312,
      "target": 34962
    },
    {
      "buffer": 0,
      "byteLength": 92748,
      "byteOffset": 914060,
      "target": 34962
    },
    {
      "buffer": 0,
      "byteLength": 61832,
      "byteOffset": 1006808,
      "target": 34962
    },
    {
      "buffer": 0,
      "byteLength": 60768,
      "byteOffset": 1068640,
      "target": 34963
    },
    {
      "buffer": 0,
      "byteLength": 113232,
      "byteOffset": 1129408,
      "target": 34962
    },
    {
      "buffer": 0,
      "byteLength": 113232,
      "byteOffset": 1242640,
      "target": 34962
    },
    {
      "buffer": 0,
      "byteLength": 75488,
      "byteOffset": 1355872,
      "target": 34962
    },
    {
      "buffer": 0,
      "byteLength": 73128,
      "byteOffset": 1431360,
      "target": 34963
    },
    {
      "buffer": 0,
      "byteLength": 2916,
      "byteOffset": 1504488,
      "target": 34962
    },
    {
      "buffer": 0,
      "byteLength": 2916,
      "byteOffset": 1507404,
      "target": 34962
    },
    {
      "buffer": 0,
      "byteLength": 1944,
      "byteOffset": 1510320,
      "target": 34962
    },
    {
      "buffer": 0,
      "byteLength": 2592,
      "byteOffset": 1512264,
      "target": 34963
    },
    {
      "buffer": 0,
      "byteLength": 146556,
      "byteOffset": 1514856,
      "target": 34962
    },
    {
      "buffer": 0,
      "byteLength": 146556,
      "byteOffset": 1661412,
      "target": 34962
    },
    {
      "buffer": 0,
      "byteLength": 97704,
      "byteOffset": 1807968,
      "target": 34962
    },
    {
      "buffer": 0,
      "byteLength": 95568,
      "byteOffset": 1905672,
      "target": 34963
    },
    {
      "buffer": 0,
      "byteLength": 1944,
      "byteOffset": 2001240,
      "target": 34962
    },
    {
      "buffer": 0,
      "byteLength": 1944,
      "byteOffset": 2003184,
      "target": 34962
    },
    {
      "buffer": 0,
      "byteLength": 1296,
      "byteOffset": 2005128,
      "target": 34962
    },
    {
      "buffer": 0,
      "byteLength": 147696,
      "byteOffset": 2006424,
      "target": 34962
    },
    {
      "buffer": 0,
      "byteLength": 147696,
      "byteOffset": 2154120,
      "target": 34962
    },
    {
      "buffer": 0,
      "byteLength": 98464,
      "byteOffset": 2301816,
      "target": 34962
    },
    {
      "buffer": 0,
      "byteLength": 96270,
      "byteOffset": 2400280,
      "target": 34963
    },
    {
      "buffer": 0,
      "byteLength": 2916,
      "byteOffset": 2496552,
      "target": 34962
    },
    {
      "buffer": 0,
      "byteLength": 2916,
      "byteOffset": 2499468,
      "target": 34962
    },
    {
      "buffer": 0,
      "byteLength": 1944,
      "byteOffset": 2502384,
      "target": 34962
    }
  ],
  "samplers": [
    {
      "magFilter": 9729,
      "minFilter": 9987
    }
  ],
  "buffers": [
    {
      "byteLength": 2504328,
      "uri": "cheiridopsis_succulent.bin"
    }
  ]
}